# xmcd
#
# Track frame offsets:
#       150
#       14415
#       24620
#       41147
#       50885
#       59487
#       75230
#       92102
#       115202
#       132902
#       147777
#
# Disc length: 2191 seconds
#
# Revision: 0
# Processed by: cddbd v1.4PL0 Copyright (c) Steve Scherf et al.
# Submitted via: CD-DA_X-Tractor v0.21
#
DISCID=96088d0b
DTITLE=Mississippi John Hurt - Satisfied...Live
DYEAR=1900
DGENRE=
TTITLE0=Candy Man
TTITLE1=My Creole Belle
TTITLE2=Make Me a Pallet on Your Floor
TTITLE3=Shake That Thing
TTITLE4=I'm Satisfied
TTITLE5=Salty Dog
TTITLE6=Nobody's Business but Mine
TTITLE7=The Angels Laid Him Away
TTITLE8=Casey Jones
TTITLE9=Baby, What's Wrong with You?
TTITLE10=Lonesome Blues
EXTD=
EXTT0=
EXTT1=
EXTT2=
EXTT3=
EXTT4=
EXTT5=
EXTT6=
EXTT7=
EXTT8=
EXTT9=
EXTT10=
PLAYORDER=
